<?xml version="1.0" encoding="utf-8"?>
<!-- Generator: Adobe Illustrator 25.2.0, SVG Export Plug-In . SVG Version: 6.00 Build 0)  -->
<svg version="1.1" id="Layer_1" xmlns="http://www.w3.org/2000/svg" xmlns:xlink="http://www.w3.org/1999/xlink" x="0px" y="0px"
	 viewBox="0 0 500 132" style="enable-background:new 0 0 500 132;" xml:space="preserve">
<style type="text/css">
	.st0{fill:#1D2A5C;}
	.st1{fill:#AFAFAF;}
</style>
<path class="st0" d="M127.3,38.7v-1.2h13.2c2.4,0,4.9,0,7.2-0.1s4.8-0.1,7.2-0.1c2.4,0,4.8,0.2,7.2,0.7c2.4,0.4,4.8,1.2,6.9,2.4
	c2.1,1.1,3.8,2.7,5.2,4.6c1.4,2.1,2.1,4.7,2.1,7.2c0.1,2.1-0.5,4.2-1.6,6c-1,1.6-2.4,3-4.1,4.1c-1.7,1.1-3.6,1.9-5.5,2.4
	c-2,0.5-4,0.9-6,1.1v0.4c2.9,0.5,5.4,1,7.6,1.6c2.1,0.4,4,1.2,5.8,2.4c1.7,1.1,3,2.6,3.9,4.4c1.1,2.4,1.7,4.9,1.8,7.5
	c0.3,3.7,0.5,6.6,0.7,8.8c0.1,1.7,0.4,3.5,0.7,5.2c0.2,0.9,0.6,1.8,1.3,2.4c0.7,0.5,1.6,0.7,2.4,0.6c1.1,0,2.1-0.3,2.9-1
	c0.8-0.7,1.4-1.3,2-1.9l0.9,0.8c-0.6,0.6-1.1,1.1-1.7,1.6c-0.6,0.5-1.2,0.9-1.9,1.3c-0.8,0.4-1.7,0.7-2.7,0.8
	c-1.3,0.2-2.6,0.3-3.9,0.3c-2.6,0.1-5.2-0.4-7.5-1.5c-1.7-0.9-3-2.2-4-3.8c-0.9-1.5-1.4-3.2-1.6-4.9c-0.2-1.8-0.3-3.4-0.4-5
	c-0.1-2.4-0.3-4.8-0.5-7c-0.2-2.1-0.6-4.1-1.4-6c-0.7-1.7-1.9-3.1-3.4-4.2c-1.9-1.2-4.1-1.7-6.4-1.6H148v31.5h8v1.2h-28.7v-1.2h8
	V38.7H127.3z M151.6,65.7c2.1,0.1,4.2-0.2,6.2-1c1.4-0.6,2.6-1.6,3.4-2.8c0.8-1.2,1.3-2.6,1.4-4.1c0.2-1.5,0.3-3.1,0.3-4.6
	c0-2.2-0.2-4.4-0.5-6.6c-0.3-1.6-0.8-3.2-1.7-4.6c-0.8-1.2-2-2.1-3.4-2.7c-1.7-0.6-3.6-0.9-5.5-0.9c-0.6,0-1.3,0-1.9,0.1l-1.9,0.2
	v27H151.6z"/>
<polygon class="st0" points="212.7,37.5 227.8,81 228,81 243.3,37.5 265.2,37.5 265.2,38.7 257.1,38.7 257.1,98.4 265.2,98.4 
	265.2,99.7 236.5,99.7 236.5,98.4 244.5,98.4 244.5,38.7 244.3,38.7 222.8,99.7 221.4,99.7 199.9,38.7 199.7,38.7 199.7,98.4 
	207.7,98.4 207.7,99.7 190.3,99.7 190.3,98.4 198.3,98.4 198.3,38.7 190.3,38.7 190.3,37.5 "/>
<path class="st0" d="M273.3,98.4l26-63.4h2.4l27.5,63.4h7.5v1.2h-29.3v-1.2h8.1L305.3,75h-21l-9.7,23.4h7.8v1.2H266v-1.2H273.3z
	 M284.8,73.8h20.1L294.6,50L284.8,73.8z"/>
<rect x="349.7" y="34.9" class="st0" width="1.9" height="64.7"/>
<path class="st0" d="M374.1,39.3c0.1,1.8-1,3.4-2.8,3.8l3,6h-1.5l-2.8-5.8h-3.8v5.8H365V35.3h4.8C372.7,35.3,374.1,37.1,374.1,39.3
	 M369.6,42.2c2.1,0,3.2-1,3.2-2.8s-1.2-2.9-3.2-2.9h-3.3v5.8L369.6,42.2z"/>
<path class="st0" d="M377.2,41.1c0-3.8,2.1-6.2,5.4-6.2s5.4,2.4,5.4,6.2v2.2c0,3.8-2.1,6.1-5.5,6.1s-5.4-2.2-5.4-6.1V41.1z
	 M378.5,43.4c0,3.2,1.7,4.9,4.1,4.9s4.1-1.7,4.1-4.9v-2.3c0-3.2-1.7-5-4.1-5s-4.1,1.8-4.1,5V43.4z"/>
<polygon class="st0" points="394.3,49.2 394.3,43 389.6,35.3 391.1,35.3 394.9,41.7 395,41.7 398.8,35.3 400.3,35.3 395.6,43 
	395.6,49.2 "/>
<path class="st0" d="M400.1,49.2l5-13.9h1.3l5,13.9H410l-1.5-4.5H403l-1.5,4.5H400.1z M405.7,36.8l-2.3,6.8h4.7L405.7,36.8
	L405.7,36.8z"/>
<polygon class="st0" points="422,49.2 414,49.2 414,35.3 415.3,35.3 415.3,48 422,48 "/>
<polygon class="st0" points="432.8,49.2 424.7,49.2 424.7,35.3 432.8,35.3 432.8,36.5 426,36.5 426,41.5 432.5,41.5 432.5,42.6 
	426,42.6 426,48 432.8,48 "/>
<polygon class="st0" points="365.1,74.3 365.1,60.3 366.3,60.3 371.2,71.8 371.3,71.8 376.2,60.3 377.5,60.3 377.5,74.3 376.3,74.3 
	376.3,63.2 376.2,63.2 371.9,73.2 370.7,73.2 366.3,63.2 366.2,63.2 366.2,74.3 "/>
<path class="st0" d="M380.2,74.3l5-13.9h1.3l5,13.9h-1.4l-1.5-4.4H383l-1.5,4.4H380.2z M385.8,62l-2.3,6.8h4.7L385.8,62L385.8,62z"
	/>
<path class="st0" d="M403.2,64.4c0.1,1.8-1,3.4-2.8,3.8l3,6.1H402l-2.8-5.8h-3.8v5.8h-1.3V60.3h4.8
	C401.8,60.3,403.3,62.2,403.2,64.4 M398.7,67.3c2.1,0,3.2-1.1,3.2-2.8s-1.2-2.9-3.1-2.9h-3.3v5.8L398.7,67.3z"/>
<path class="st0" d="M406.2,66.2c0-3.8,2.1-6.2,5.4-6.2s5.4,2.4,5.4,6.2v2.2c0,3.8-2.1,6.1-5.5,6.1s-5.4-2.2-5.4-6.1V66.2z
	 M407.5,68.5c0,3.2,1.7,4.9,4.1,4.9s4.1-1.7,4.1-4.9v-2.3c0-3.2-1.7-5-4.1-5s-4.1,1.8-4.1,5V68.5z"/>
<path class="st0" d="M421.4,68.5c0,3.1,1.5,4.9,4.1,4.9c2.3,0,3.7-1.5,3.7-3.2h1.3c0,2-1.6,4.3-5,4.3s-5.3-2.3-5.3-6.1v-2.2
	c0-3.7,2-6.2,5.3-6.2c2.5-0.2,4.8,1.7,5,4.2c0,0.1,0,0.2,0,0.3h-1.3c-0.1-1.9-1.7-3.4-3.6-3.3c0,0-0.1,0-0.1,0c-2.5,0-4,1.9-4,5
	L421.4,68.5z"/>
<path class="st0" d="M432.5,74.3l5-13.9h1.3l5,13.9h-1.4l-1.5-4.4h-5.5l-1.5,4.4H432.5z M438,62l-2.3,6.8h4.7L438,62L438,62z"/>
<rect x="446.5" y="60.3" class="st0" width="1.3" height="13.9"/>
<polygon class="st0" points="451.9,74.3 451.9,60.3 453.2,60.3 460.7,72 460.8,72 460.8,60.3 462.1,60.3 462.1,74.3 460.8,74.3 
	453.3,62.6 453.2,62.6 453.2,74.3 "/>
<polygon class="st0" points="474.3,74.3 466.2,74.3 466.2,60.3 474.3,60.3 474.3,61.5 467.5,61.5 467.5,66.6 474,66.6 474,67.7 
	467.5,67.7 467.5,73.1 474.3,73.1 "/>
<path class="st0" d="M369.1,85.4c4.5,0,6.1,2.9,6.1,7s-1.6,6.9-6.1,6.9H365V85.4H369.1z M366.3,98.2h2.8c3.4,0,4.9-2.2,4.9-5.8
	s-1.4-5.8-4.9-5.8h-2.8V98.2z"/>
<polygon class="st0" points="378.1,90.5 379.1,85.4 380.7,85.4 379.2,90.5 "/>
<path class="st0" d="M381,99.3l5-13.9h1.3l5,13.9h-1.4l-1.5-4.4h-5.5l-1.5,4.4L381,99.3z M386.6,87l-2.4,6.8h4.8L386.6,87L386.6,87z
	"/>
<path class="st0" d="M395.2,95.7c0.1,1.3,1.2,2.8,3.7,2.8c2.1,0,3.5-1.1,3.5-2.7c0-1.4-0.9-2.1-2.7-2.6l-2.2-0.6
	c-1.7-0.5-3.2-1.5-3.2-3.6c0-2.5,2.1-3.9,4.6-3.9s4.6,1.3,4.6,3.8h-1.3c-0.1-1.3-1.1-2.6-3.3-2.6c-2,0-3.3,1-3.3,2.6
	c0,1.2,0.8,2,2.3,2.4l2.2,0.6c2.3,0.6,3.7,1.5,3.7,3.7c0,2.6-2.2,4-5,4c-3.6,0-4.8-2.2-4.9-4L395.2,95.7z"/>
<path class="st0" d="M407.4,95.7c0.1,1.3,1.2,2.8,3.7,2.8c2.1,0,3.5-1.1,3.5-2.7c0-1.4-0.9-2.1-2.7-2.6l-2.2-0.6
	c-1.7-0.5-3.2-1.5-3.2-3.6c0-2.5,2.1-3.9,4.6-3.9s4.6,1.3,4.6,3.8h-1.3c-0.1-1.3-1.1-2.6-3.3-2.6c-2,0-3.3,1-3.3,2.6
	c0,1.2,0.8,2,2.3,2.4l2.2,0.6c2.3,0.6,3.7,1.5,3.7,3.7c0,2.6-2.2,4-5,4c-3.6,0-4.8-2.2-4.9-4L407.4,95.7z"/>
<path class="st0" d="M420.3,94.5c-0.1,2.1,1.5,3.9,3.6,4c2.1,0.1,3.9-1.5,4-3.6c0-0.1,0-0.3,0-0.4v-9.1h1.3v9.1
	c0.1,2.8-2.1,5.2-4.9,5.3c-2.8,0.1-5.2-2.1-5.3-4.9c0-0.2,0-0.3,0-0.5v-9.1h1.3V94.5z"/>
<path class="st0" d="M442.3,89.5c0.1,1.8-1,3.4-2.8,3.8l3,6.1H441l-2.8-5.8h-3.8v5.8h-1.3V85.4h4.9
	C440.9,85.4,442.3,87.3,442.3,89.5 M437.8,92.4c2.1,0,3.2-1.1,3.2-2.8s-1.2-2.9-3.2-2.9h-3.3v5.8L437.8,92.4z"/>
<path class="st0" d="M444.5,99.3l5-13.9h1.3l5,13.9h-1.4l-1.5-4.4h-5.5l-1.5,4.4L444.5,99.3z M450,87l-2.3,6.8h4.7l-2.3-6.8H450z"/>
<polygon class="st0" points="458.4,99.3 458.4,85.4 459.7,85.4 467.2,97.1 467.3,97.1 467.3,85.4 468.6,85.4 468.6,99.3 467.2,99.3 
	459.8,87.7 459.7,87.7 459.7,99.3 "/>
<path class="st0" d="M473.4,93.6c0,3.1,1.5,4.9,4.1,4.9c2.3,0,3.7-1.5,3.7-3.1h1.3c0,2-1.6,4.3-5,4.3s-5.3-2.3-5.3-6.1v-2.2
	c0-3.7,2-6.2,5.3-6.2c2.5-0.2,4.8,1.7,5,4.2c0,0.1,0,0.2,0,0.3h-1.3c-0.1-1.9-1.7-3.4-3.6-3.3c0,0-0.1,0-0.1,0c-2.5,0-4,1.9-4,5
	L473.4,93.6z"/>
<polygon class="st0" points="494,99.3 485.9,99.3 485.9,85.4 494,85.4 494,86.6 487.2,86.6 487.2,91.6 493.6,91.6 493.6,92.8 
	487.2,92.8 487.2,98.2 494,98.2 "/>
<path class="st0" d="M60.5,12.8c-29.4,0-53.2,23.8-53.2,53.2s23.8,53.2,53.2,53.2s53.2-23.8,53.2-53.2c0,0,0,0,0,0
	C113.7,36.7,89.9,12.9,60.5,12.8 M60.5,111.5c-25.1,0-45.4-20.3-45.4-45.4s20.3-45.4,45.4-45.4s45.4,20.3,45.4,45.4
	C105.8,91.1,85.5,111.4,60.5,111.5"/>
<path class="st0" d="M60.2,23.9C36.9,23.9,18,42.7,18,66.1s18.9,42.2,42.2,42.2s42.2-18.9,42.2-42.2l0,0
	C102.4,42.8,83.6,23.9,60.2,23.9 M60.2,107.6c-22.9,0-41.5-18.6-41.5-41.5s18.6-41.5,41.5-41.5s41.5,18.6,41.5,41.5c0,0,0,0,0,0
	C101.7,89,83.2,107.5,60.2,107.6"/>
<path class="st1" d="M43.5,38.5c4.7-7.3,13.6-8,13.6-8C48.9,27.9,40.3,35,40.3,35L43.5,38.5z"/>
<path class="st1" d="M38,74.2l-1.6-7C31.3,67.8,26,76.8,26,76.8c-2.2-4.6-0.1-13-0.1-13c-2,3.2-3.5,6.8-4.3,10.5
	c0.9,4.2,2.4,8.2,4.6,11.8c1.5-12.4,8.5-16.1,8.5-16.1c-9.5,12.6-1.4,24.8-1.4,24.8C31,85,38,74.2,38,74.2"/>
<path class="st1" d="M27.6,70.9c0,0,7.3-5.4,9.4-5.4c0,0-5.1-1.2-7.8,1.3c0,0-0.3-2,2.6-8.9C31.8,57.8,26.6,63.8,27.6,70.9"/>
<path class="st1" d="M34.6,62.2c0.5-3.6,2-7,4.4-9.8c0,0-5.8,2.2-7.8,11.2c0,0,5.5-0.7,6.8,0.4C37.9,64.1,36.7,61.9,34.6,62.2"/>
<path class="st1" d="M36.6,43.5c-13.2,8.6-9.7,22.8-9.7,22.8c1.2-10.1,11.7-17.2,11.7-17.2l0.7-0.5c0,0,8.2-4.8,8.2-11.6
	c0,0-2.4,5.4-8.3,4.4c-5.7-1.2-13,5.5-13,5.5s0-0.3,0-0.4c-2.5,4.2-4.1,8.9-4.9,13.7C26.8,44.8,36.6,43.5,36.6,43.5"/>
<path class="st1" d="M81.8,41.4c-5.9,1-8.3-4.4-8.3-4.4c0,6.8,8.2,11.6,8.2,11.6l0.7,0.5c0,0,10.5,7.1,11.6,17.2
	c0,0,3.5-14.2-9.7-22.8c0,0,9.8,1.4,15.3,16.6c-0.7-4.8-2.4-9.5-4.8-13.7c0,0.2,0,0.3,0,0.4S87.5,40.2,81.8,41.4"/>
<path class="st1" d="M39.9,39.4c0,0-3.8-2.4-7-1.7c-1.1,1.1-2.2,2.2-3.2,3.5C31.6,40.6,38.1,38.8,39.9,39.4"/>
<path class="st1" d="M38,35.5c0,0,0.8-2,5.6-4.3c-1.2,0.2-2.4,0.5-3.5,1c-1.6,0.7-3,1.7-4.2,2.9c-0.2,0.2-0.4,0.4-0.6,0.7
	c2.5,1.1,4.9,2.5,7.2,4C42.5,39.8,40.3,35.9,38,35.5"/>
<path class="st1" d="M79.3,95.6c0.4-4.9-1-9.7-4.1-13.5c0.1,2.2-0.5,4.3-1.6,6.2c1.7,3.3,1.6,7.3-0.3,10.5c1-2.2-0.4-5.8-0.4-5.8
	C69.8,99,65,99,65,99s-4.6,5.7-9,0c0,0-4.8-0.1-7.9-6.2c0,0-1.4,3.6-0.4,5.8c-1.9-3.2-2.1-7.2-0.3-10.5c-1.1-1.9-1.7-4-1.6-6.2
	c-3,3.8-4.5,8.7-4.1,13.5c0,0-4.7-8.7-1.8-17C36.6,84.8,36,92.1,38,98.9c1.6,1.1,3.4,2.1,5.2,3c-0.2-2.9,0.2-5.9,1.3-8.6
	c0,0-0.8,4.1,2,10c1.2,0.4,2.4,0.8,3.6,1.1c-0.2-1-0.3-2-0.1-3c0.3-1.2,2.4,1,3.9,3.8c1.8,0.3,3.6,0.5,5.4,0.5
	c-0.3-0.5-0.5-1-0.5-1.6l1.8,0.8l1.8-0.8c0,0.6-0.2,1.1-0.5,1.6c1.8-0.1,3.6-0.2,5.4-0.5c1.5-2.8,3.6-5,3.9-3.8c0.2,1,0.1,2-0.1,3
	c1.2-0.3,2.4-0.7,3.6-1.2c2.7-5.9,2-10,2-10c1.1,2.7,1.5,5.7,1.3,8.6c1.8-0.9,3.5-1.9,5.2-3c2.1-6.7,1.4-14-1.7-20.3
	C84,86.8,79.3,95.5,79.3,95.6"/>
<path class="st1" d="M60.5,92.8c-0.6,2-3,3.7-3,3.7c1.5,0.5,3,4,3,4s1.5-3.5,3-4C63.5,96.5,61.1,94.8,60.5,92.8"/>
<path class="st1" d="M94.9,76.8c0,0-5.3-9-10.4-9.5l-1.6,7c0,0,7,10.7,4.7,20.6c0,0,8.1-12.2-1.4-24.8c0,0,7,3.7,8.5,16.1
	c2.2-3.7,3.7-7.7,4.6-11.8c-0.8-3.7-2.2-7.3-4.3-10.5C95,63.8,97.1,72.2,94.9,76.8"/>
<path class="st1" d="M91.2,41.2c-1-1.2-2.1-2.4-3.2-3.5c-3.2-0.7-7,1.7-7,1.7C82.7,38.8,89.3,40.7,91.2,41.2"/>
<path class="st1" d="M21.3,63.5c-0.6,2.7,0,7.7,0,7.7c0.9-6.4,5-15.9,5-15.9C22.8,58,21.3,63.5,21.3,63.5"/>
<path class="st1" d="M99.5,63.5c0,0-1.5-5.5-5-8.1c0,0,4.1,9.5,5,15.9C99.5,71.3,100.1,66.2,99.5,63.5"/>
<path class="st1" d="M88.7,57.2c2.9,6.9,2.6,8.9,2.6,8.9c-2.7-2.4-7.8-1.3-7.8-1.3c2.1,0,9.4,5.4,9.4,5.4
	C93.9,63.2,88.7,57.2,88.7,57.2"/>
<path class="st1" d="M89.3,63.1c-2-9-7.8-11.2-7.8-11.2c2.3,2.8,3.9,6.2,4.3,9.8c-2-0.3-3.3,1.8-3.3,1.8
	C83.8,62.4,89.3,63.1,89.3,63.1"/>
<path class="st1" d="M60.5,48.1c3.7-5.7,3.7-13,0-18.6C56.7,35.1,56.7,42.4,60.5,48.1"/>
<path class="st1" d="M77.4,38.5l3.2-3.5c0,0-8.6-7.1-16.8-4.5C63.9,30.5,72.8,31.2,77.4,38.5"/>
<path class="st1" d="M83,35.5c-2.3,0.3-4.6,4.3-4.6,4.3c2.3-1.5,4.7-2.9,7.2-4c-0.2-0.2-0.4-0.5-0.6-0.7c-1.2-1.2-2.5-2.2-4.1-2.9
	c-1.1-0.5-2.3-0.8-3.5-1C82.2,33.5,83,35.5,83,35.5"/>
<path class="st1" d="M47.3,43.8c4.8-1,9.5,4.3,9.5,4.3c-2.8-9.6,0-15.4,0-15.4C48.9,37.8,47.3,43.8,47.3,43.8"/>
<path class="st1" d="M73.5,43.8c0,0-1.5-6.1-9.5-11.1c0,0,2.8,5.8,0,15.4C64,48.1,68.7,42.9,73.5,43.8"/>
<path class="st1" d="M66.4,87.9v0.3l2.4,0.3c-0.6,2.2-2.1,2.3-7.6,0.8c0-1.8,0.8-3.6,2.2-4.8c1.4-1.3,2-1.8,2.9-2.6
	c1.3-1.1-0.1-1.3-0.5-1.3H55c-0.4,0-1.8,0.2-0.5,1.3c0.9,0.8,1.5,1.3,2.9,2.6c1.4,1.2,2.2,3,2.2,4.8c-5.5,1.6-7,1.4-7.6-0.8l2.4-0.3
	v-0.3l-4.3-1.3c0.2,4.3,1.8,5.6,5.6,4.8c1.7-0.4,3.4-1,4.7,0.9c1.3-1.9,3-1.3,4.7-0.9c3.8,0.8,5.4-0.4,5.6-4.8L66.4,87.9 M60.8,84.8
	c-0.1,0.2-0.3,0.3-0.4,0.3l0,0c-0.1-0.1-0.2-0.1-0.3-0.3c-0.7-1.1-1.6-2-2.7-2.7c-0.3-0.3,0-0.4,0-0.4h5.9c0,0,0.7,0,0.1,0.4
	C62.4,82.9,61.5,83.8,60.8,84.8"/>
<path class="st1" d="M43.8,56.1c1-1.1,2.2-2.1,3.1-3.3c1.3-1.9,3.5-3,5.7-2.9c0.7,0,1.5-0.1,2.2-0.3c-0.9-1.7-2.5-2.9-4.3-3.3
	c-3.4-0.7-5.8,0.6-8.1,4.2c-1.6,2.6-3.3,5.1-4.9,7.6C39.7,58.3,42,58.2,43.8,56.1"/>
<path class="st1" d="M83.1,58.2c-1.7-2.7-3.3-5.5-5-8.2c-0.6-0.9-1.3-1.8-2-2.6c-2-2.4-9.1-1.6-9.7,2.3c3.6-1,5.9,0.8,8,3.4
	c0.5,0.6,1.1,1.1,1.6,1.8C77.6,57.2,80.4,58.4,83.1,58.2"/>
<path class="st1" d="M48.1,81.4c0.6,2.3,2.7,3.9,5.1,3.8c-5-2.6-4-6.8-3.3-11.1c-2.4,1-3.3-0.3-4.1-2c-2.3-4.5-2.4-9.3-2-14.3
	c-0.2,0.8-0.6,1.6-0.8,2.4c-1.2,4.9-0.1,9,1.8,13.5C45.9,76,47.9,75.9,48.1,81.4"/>
<path class="st1" d="M72.7,81.4c0.2-5.4,2.2-5.3,3.2-7.7c1.9-4.5,3-8.6,1.8-13.5c-0.2-0.8-0.5-1.6-0.8-2.4c0.4,5,0.3,9.8-2,14.3
	c-0.8,1.7-1.8,3-4.1,2c0.8,4.3,1.7,8.5-3.3,11.1C70,85.3,72.1,83.7,72.7,81.4"/>
<path class="st1" d="M54.5,64.1c0.1-0.1,0.1-0.2-0.4-0.6c-1.5-1-4.8-3.2-6.3-4.1c0,0-0.5-0.3-0.2,0c1.4,1.5,3,3.7,3,3.7h-3.4
	c0,0-1-0.1-0.2,0.5c1.4,1.1,2.7,3.2,4.4,3.1c2-0.1,1.9,1.6,2,3.1c0.2,2.2,0.3,4.4,0.5,6.6h0.7c-0.3-3.5-0.6-7-0.9-10.5
	c0-0.5,0.1-1.1,0.3-1.6C53.7,64.3,54.3,64.2,54.5,64.1"/>
<path class="st1" d="M73.1,59.4c-1.6,0.9-4.9,3.1-6.3,4.1c-0.5,0.4-0.5,0.5-0.4,0.6s0.7,0.2,0.7,0.2c0.2,0.5,0.3,1,0.3,1.6
	c-0.3,3.5-0.6,7-0.9,10.5H67c0.2-2.2,0.3-4.4,0.5-6.6c0.1-1.5,0-3.2,2-3.1c1.7,0.1,3-2,4.4-3.1c0.8-0.6-0.2-0.5-0.2-0.5h-3.4
	c0,0,1.6-2.2,3-3.7C73.5,59.1,73,59.4,73.1,59.4"/>
<path class="st1" d="M56.3,55c0.6,2.5,3.5,4,4.1,6.7C61,59,64,57.5,64.5,55c-1.3,0.7-2.7,1.1-4.1,1.3C59,56.1,57.6,55.7,56.3,55"/>
</svg>
